<svg width="376" height="462" viewBox="0 0 376 462" fill="none" xmlns="http://www.w3.org/2000/svg">
<path d="M114.416 154.896L114.375 154.917L114.312 154.958L114.416 154.896ZM321.791 151C320.342 149.602 318.734 148.378 317 147.354C314.545 145.909 311.819 144.982 308.992 144.632C306.164 144.282 303.295 144.515 300.561 145.317C297.828 146.12 295.288 147.475 293.099 149.298C290.909 151.121 289.117 153.373 287.833 155.917C280.658 170.061 270.76 182.649 258.708 192.958C260.556 182.574 261.49 172.047 261.5 161.5C261.539 129.419 253.077 97.9014 236.975 70.1547C220.873 42.4079 197.706 19.4235 169.833 3.54162C166.761 1.79639 163.296 0.860897 159.764 0.823093C156.231 0.785288 152.747 1.64641 149.639 3.32551C146.531 5.00462 143.901 7.44654 141.996 10.4217C140.091 13.3969 138.974 16.8076 138.75 20.3333C137.583 40.0854 132.419 59.3951 123.57 77.0926C114.722 94.7902 102.372 110.507 87.2704 123.292L82.4788 127.187C66.6791 137.818 52.6944 150.923 41.0621 166C22.9845 188.773 10.4619 215.445 4.48744 243.901C-1.487 272.357 -0.7489 301.813 6.6432 329.934C14.0353 358.054 27.8781 384.066 47.0735 405.905C66.269 427.744 90.2891 444.81 117.229 455.75C120.392 457.037 123.823 457.527 127.219 457.177C130.616 456.827 133.875 455.647 136.709 453.742C139.542 451.836 141.864 449.263 143.47 446.249C145.075 443.235 145.916 439.873 145.916 436.458C145.899 434.251 145.548 432.06 144.875 429.958C140.213 412.438 138.871 394.201 140.916 376.187C160.634 413.366 192.282 442.834 230.77 459.854C235.466 461.953 240.774 462.235 245.666 460.646C276.072 450.83 303.463 433.403 325.237 410.021C347.012 386.639 362.446 358.077 370.074 327.05C377.701 296.023 377.27 263.561 368.819 232.748C360.368 201.935 344.18 173.795 321.791 151ZM240.437 418.312C222.276 409.11 206.256 396.189 193.417 380.389C180.578 364.589 171.208 346.263 165.916 326.604C164.298 319.984 163.047 313.279 162.166 306.521C161.573 302.217 159.65 298.207 156.666 295.05C153.681 291.894 149.784 289.749 145.52 288.917C144.209 288.662 142.877 288.536 141.541 288.542C137.881 288.538 134.284 289.499 131.113 291.328C127.942 293.156 125.309 295.788 123.479 298.958C106.196 328.776 97.5074 362.797 98.3746 397.25C83.1695 385.431 70.4616 370.712 60.9874 353.945C51.5133 337.179 45.4613 318.699 43.1824 299.576C40.9035 280.453 42.4429 261.068 47.7114 242.545C52.98 224.021 61.8729 206.728 73.8746 191.667C82.9875 179.83 93.9807 169.569 106.416 161.292C106.96 160.943 107.482 160.56 107.979 160.146C107.979 160.146 114.145 155.042 114.354 154.937C144.045 129.834 165.166 96.093 174.77 58.4166C197.467 79.4034 212.599 107.297 217.816 137.766C223.034 168.235 218.045 199.574 203.625 226.917C201.716 230.566 200.932 234.699 201.372 238.794C201.812 242.889 203.455 246.762 206.095 249.923C208.734 253.084 212.252 255.392 216.202 256.556C220.153 257.719 224.36 257.685 228.291 256.458C260.202 246.45 288.282 226.907 308.75 200.458C321.056 218.63 329.102 239.344 332.289 261.058C335.475 282.772 333.72 304.925 327.153 325.866C320.587 346.808 309.378 365.997 294.364 382.003C279.349 398.01 260.916 410.421 240.437 418.312Z" fill="url(#paint0_linear_74_19)"/>
<path d="M254 227.5C254 328.292 231.166 410 203 410C174.833 410 152 328.292 152 227.5C152 126.708 174.833 45 203 45C231.166 45 254 126.708 254 227.5Z" fill="url(#paint1_linear_74_19)"/>
<path d="M154.333 224.946C117.711 318.849 72.5711 388.947 53.511 381.513C34.4509 374.08 48.688 291.93 85.3104 198.027C121.933 104.124 167.073 34.026 186.133 41.4595C205.193 48.893 190.956 131.043 154.333 224.946Z" fill="url(#paint2_linear_74_19)"/>
<path d="M103.398 268.061C84.4129 316.741 53.5711 350.177 34.511 342.744C15.4509 335.31 15.3901 289.821 34.3752 241.142C53.3603 192.462 84.2021 159.026 103.262 166.459C122.322 173.893 122.383 219.382 103.398 268.061Z" fill="url(#paint3_linear_74_19)"/>
<path d="M154.215 305.797C129.256 369.795 93.5711 415.65 74.511 408.216C55.4509 400.783 60.2331 342.876 85.1924 278.878C110.152 214.88 145.837 169.026 164.897 176.459C183.957 183.893 179.175 241.8 154.215 305.797Z" fill="url(#paint4_linear_74_19)"/>
<path d="M332.65 342.027C307.691 406.025 259.82 447.127 225.728 433.831C191.637 420.535 184.233 357.876 209.192 293.878C234.152 229.88 282.022 188.778 316.114 202.074C350.206 215.37 357.609 278.029 332.65 342.027Z" fill="url(#paint5_linear_74_19)"/>
<defs>
<linearGradient id="paint0_linear_74_19" x1="157.5" y1="33" x2="234.5" y2="439" gradientUnits="userSpaceOnUse">
<stop stop-color="#6EA1F5"/>
<stop offset="1" stop-color="#3B82F6"/>
</linearGradient>
<linearGradient id="paint1_linear_74_19" x1="157.5" y1="33" x2="234.5" y2="439" gradientUnits="userSpaceOnUse">
<stop stop-color="#6EA1F5"/>
<stop offset="1" stop-color="#3B82F6"/>
</linearGradient>
<linearGradient id="paint2_linear_74_19" x1="157.5" y1="33" x2="234.5" y2="439" gradientUnits="userSpaceOnUse">
<stop stop-color="#6EA1F5"/>
<stop offset="1" stop-color="#3B82F6"/>
</linearGradient>
<linearGradient id="paint3_linear_74_19" x1="157.5" y1="33" x2="234.5" y2="439" gradientUnits="userSpaceOnUse">
<stop stop-color="#6EA1F5"/>
<stop offset="1" stop-color="#3B82F6"/>
</linearGradient>
<linearGradient id="paint4_linear_74_19" x1="157.5" y1="33" x2="234.5" y2="439" gradientUnits="userSpaceOnUse">
<stop stop-color="#6EA1F5"/>
<stop offset="1" stop-color="#3B82F6"/>
</linearGradient>
<linearGradient id="paint5_linear_74_19" x1="157.5" y1="33" x2="234.5" y2="439" gradientUnits="userSpaceOnUse">
<stop stop-color="#6EA1F5"/>
<stop offset="1" stop-color="#3B82F6"/>
</linearGradient>
</defs>
</svg>
